<svg width="143" height="40" viewBox="0 0 143 40" fill="none" xmlns="http://www.w3.org/2000/svg">
<g clip-path="url(#clip0_67_8174)">
<path d="M11.6249 6.32911C8.72336 6.32911 6.07026 7.63244 4.03122 9.39991V0H0V28.1763H4.03122V26.6057C6.07026 28.3685 8.72336 29.5827 11.6249 29.5827C18.0373 29.5827 23.2498 24.3694 23.2498 17.9559C23.2498 11.5471 18.0327 6.32911 11.6249 6.32911ZM11.4374 25.5509C7.2515 25.5509 3.79684 22.3629 3.79684 17.9559C3.79684 13.5396 7.2515 10.361 11.4374 10.361C15.6233 10.361 18.8436 13.7693 18.8436 17.9559C18.8436 22.1425 15.6233 25.5509 11.4374 25.5509Z" fill="white"/>
<path d="M77.2962 0V9.39522C75.2572 7.63244 72.6041 6.32442 69.7025 6.32442C63.2901 6.32442 58.0776 11.5377 58.0776 17.9512C58.0776 24.3647 63.2948 29.5781 69.7025 29.5781C72.6041 29.5781 75.2572 28.3685 77.2962 26.601V28.1716H81.3274V0H77.2962ZM69.89 25.5509C65.7041 25.5509 62.4838 22.1425 62.4838 17.9559C62.4838 13.7693 65.7041 10.361 69.89 10.361C74.0759 10.361 77.5306 13.5443 77.5306 17.9559C77.5306 22.3629 74.0759 25.5509 69.89 25.5509Z" fill="white"/>
<path d="M115.93 3.79749H111.899V7.60902H109.64V11.5471H111.899V28.1763H115.93V11.5471H118.176V7.60902H115.93V3.79749Z" fill="white"/>
<path d="M29.8591 7.61365H25.8279V28.1762H29.8591V7.61365Z" fill="white"/>
<path d="M103.03 7.61373V9.39526C100.991 7.63248 98.3382 6.32446 95.4367 6.32446C89.0289 6.32446 83.8118 11.5378 83.8118 17.9513C83.8118 24.3648 89.0242 29.5781 95.4367 29.5781C98.3382 29.5781 100.991 28.3685 103.03 26.6011V28.1716H107.062V7.61373H103.03ZM95.6242 25.5509C91.4383 25.5509 88.218 22.1426 88.218 17.956C88.218 13.7694 91.4383 10.361 95.6242 10.361C99.8101 10.361 103.265 13.5443 103.265 17.956C103.265 22.3676 99.8101 25.5509 95.6242 25.5509Z" fill="white"/>
<path d="M138.191 7.61373V9.39526C136.152 7.63248 133.499 6.32446 130.597 6.32446C124.19 6.32446 118.972 11.5378 118.972 17.9513C118.972 24.3648 124.185 29.5781 130.597 29.5781C133.499 29.5781 136.152 28.3685 138.191 26.6011V28.1716H142.222V7.61373H138.191ZM130.785 25.5509C126.599 25.5509 123.379 22.1426 123.379 17.956C123.379 13.7694 126.599 10.361 130.785 10.361C134.971 10.361 138.425 13.5443 138.425 17.956C138.425 22.3676 134.971 25.5509 130.785 25.5509Z" fill="white"/>
<path d="M51.5621 7.61373V9.39526C49.523 7.63248 46.8699 6.32446 43.9684 6.32446C37.5606 6.32446 32.3435 11.5378 32.3435 17.9513C32.3435 24.3648 37.556 29.5781 43.9684 29.5781C46.8699 29.5781 49.523 28.3685 51.5621 26.6011V27.6934C51.5621 33.7741 47.3012 35.8463 43.3122 35.8463C42.1497 35.8463 41.02 35.6072 39.9606 35.1337L38.3106 38.9311C39.895 39.639 41.5778 39.9953 43.3122 39.9953C50.4184 39.9953 55.5933 35.054 55.5933 27.6934V7.61373H51.5621ZM44.1559 25.5509C39.97 25.5509 36.7497 22.1426 36.7497 17.956C36.7497 13.7694 39.97 10.361 44.1559 10.361C48.3418 10.361 51.7965 13.5443 51.7965 17.956C51.7965 22.3676 48.3418 25.5509 44.1559 25.5509Z" fill="white"/>
</g>
<defs>
<clipPath id="clip0_67_8174">
<rect width="142.222" height="40" fill="white"/>
</clipPath>
</defs>
</svg>
